<?xml version="1.0" encoding="UTF-8" standalone="no"?>
<!DOCTYPE svg PUBLIC "-//W3C//DTD SVG 1.1//EN" "http://www.w3.org/Graphics/SVG/1.1/DTD/svg11.dtd">
<svg width="100%" height="100%" viewBox="0 0 1280 800" version="1.1" xmlns="http://www.w3.org/2000/svg" xmlns:xlink="http://www.w3.org/1999/xlink" xml:space="preserve" xmlns:serif="http://www.serif.com/" style="fill-rule:evenodd;clip-rule:evenodd;stroke-linejoin:round;stroke-miterlimit:2;">
    <path d="M-25.796,11.588C-25.796,11.588 113.812,74.067 64.088,264.961C14.364,455.855 52.035,550.011 85.306,590.464C159.595,680.791 422.585,685.409 374.644,865.251C318.16,1077.14 -36.821,889.3 -36.821,889.3L-68.169,628.503L-25.796,11.588Z" style="fill:#FFD8A9;"/>
    <path d="M1325.51,11.588C1325.51,11.588 1139.41,22.995 1081.35,316.301C1023.28,609.607 783.22,648.278 741.066,661.683C694.922,676.357 589.584,728.698 673.753,842.527C757.922,956.355 1321.37,827.353 1321.37,827.353L1325.51,11.588" style="fill:#FFD8A9;"/>
</svg>
